<svg id="Capa_1" data-name="Capa 1" xmlns="http://www.w3.org/2000/svg" viewBox="0 0 1198 200"><defs><style>.cls-1{fill:#c1272d;}.cls-2{fill:red;}.cls-3{fill:#39b54a;}.cls-4{fill:aqua;}.cls-5{fill:#00a99d;}.cls-6{fill:#d4145a;}</style></defs><title>Sin título-1</title><path d="M76.08,220.72c-20.57-42.85-36.87-88-45.06-135C23.39,42,22.36-4.32,33.87-47.51c10.3-38.65,31.81-74.95,67.75-94.57,37.36-20.4,82.15-21,123.54-18,51.72,3.79,104.89,13.24,155.57-2.66,1.84-.58,1.05-3.47-.8-2.89C291.48-137.85,195-188.27,108.59-148.9,27.54-112,15.27-8.18,25.58,69.92c7,53.09,24.81,104.19,47.91,152.32.83,1.74,3.42.22,2.59-1.51Z"/><path class="cls-1" d="M56.49,23.85C61.61,6.74,76.86-5,93.84-9c18.3-4.38,37.22,1.3,52.58,11.47,35.16,23.27,50.33,66.48,67,103.19l28.86,63.61c7.14,15.75,13.67,34.93,29.31,44.34,15.11,9.09,33.92,6,50.1,1.92,21-5.33,41.67-11.85,62.16-18.71a1071.47,1071.47,0,0,0,133.9-55.27c1.73-.85.21-3.44-1.51-2.59a1067,1067,0,0,1-124.3,51.95q-31.06,10.72-62.75,19.5c-18.36,5.09-41,11.25-58.06-.65-8.37-5.83-13.63-15-18-24-4.78-9.83-9.11-19.89-13.62-29.84L210.22,91.4c-16-35.3-32.22-74.76-67.65-94.84-16.23-9.19-35.5-13-53.58-7.36C72.63-5.66,58.59,6.35,53.59,23.05c-.55,1.85,2.34,2.65,2.89.8Z"/><path class="cls-1" d="M466.26-50.27A1199.14,1199.14,0,0,1,364,60.92c-34.83,33.35-71.4,65.88-112.08,92-38.35,24.61-81.75,43.49-127.79,45.8-40.13,2-80.3-9.29-114.54-30.06C-29.35,145-60.76,109.06-76.53,66.16c-.66-1.8-3.56-1-2.89.8,27.88,75.86,103.6,130.4,184.1,134.71,95.17,5.09,176.49-60.39,242.59-121A1198.13,1198.13,0,0,0,468.38-48.15c1.21-1.49-.9-3.62-2.12-2.12Z"/><path class="cls-2" d="M265.76,25.91c20.26-2.74,33.57,18.33,41.05,34,8.12,17,14.54,35,24.53,51.06,9.43,15.2,22.16,27.46,38.66,34.69,16.67,7.3,35.07,9.57,53.09,10.45,22,1.08,44.12.84,66.13.72,23.5-.13,47-.74,70.44-2.47,42.44-3.14,84.81-10,125.05-24.18C726.2,115.62,765.19,93.42,796.29,62a1.5,1.5,0,0,0-2.12-2.12c-59.6,60.14-144.65,83.88-226.84,90.86-44.93,3.82-90.39,3.88-135.44,2.68-19-.5-38.51-2-56.45-8.77-18.85-7.14-33-20.6-43.09-37.81-10.49-17.81-16.66-37.71-26.63-55.76-8.24-14.91-22-30.63-40.75-28.1-1.9.26-1.09,3.15.8,2.89Z"/><path class="cls-2" d="M673-19.49A157.15,157.15,0,0,0,568.71,34c-25.09,29-41.28,66.51-73,89.49-35.9,26-85.39,26.05-127.51,20-42.69-6.1-83.67-21.1-121.85-40.88C202.63,80,162.31,51.24,124.19,20.18c-1.48-1.21-3.62.9-2.12,2.12C188.63,76.53,264,126,349.42,143.3c40.57,8.2,86.92,11.09,125.94-5.1,37.2-15.44,57.25-49.93,79.47-81.33C568.52,37.52,584,20,604.07,7.16A154,154,0,0,1,673-16.49c1.91-.17,1.93-3.18,0-3Z"/><path class="cls-3" d="M256.05,158.13A381.68,381.68,0,0,1,348,70.22c18-12.14,37.33-23.68,58.95-27.62,23.68-4.31,47.42,2.15,70.33,7.63,89.42,21.41,181.35,8.12,267.21-21.83,47.83-16.68,93.84-38.1,139.11-60.73,1.73-.86.21-3.45-1.51-2.59-83,41.52-170,79.43-263.1,90.1-46.54,5.34-93.43,3.43-139.07-7.4-21.92-5.21-44.4-11.52-67.16-9-21,2.29-40.08,12-57.63,23.21a385,385,0,0,0-101.66,94.66c-1.16,1.55,1.45,3,2.59,1.51Z"/><path class="cls-3" d="M735,185.45c-15.64,14.13-38.88.54-52.19-10.37a347.17,347.17,0,0,1-43.3-42.75,361.76,361.76,0,0,1-36.23-50.53c-9.92-16.7-17.45-36.13-32.44-49.14-13.27-11.53-30.73-16.44-47.92-18-20.08-1.86-40.72.14-60.41,4.2a237.92,237.92,0,0,0-60.3,21.35c-18.94,9.69-37,21.42-57.08,28.67-48.8,17.59-100.21-.12-146.57-16.9-1.82-.66-2.6,2.24-.8,2.89,40.6,14.7,84.5,30.17,128.26,22.27,21-3.79,39.79-13.66,58.25-23.84,19.73-10.88,39.53-20.87,61.26-27.15A224.87,224.87,0,0,1,511.83,17c20,.36,41.38,4.31,56.94,17.76C584.56,48.43,592.3,69.54,603,87a367,367,0,0,0,36.16,49.41c14.51,16.71,30.71,33.9,49.07,46.43,14,9.55,34.53,17.81,49,4.74,1.44-1.3-.69-3.41-2.12-2.12Z"/><path class="cls-4" d="M596.66,192.62c-.82-34.3,11.08-69.2,34-95C636.78,90.8,644,85,653.26,83.28c9.7-1.78,19.67.66,29,3.31,17.65,5,35.11,9.84,53.3,12.55,66,9.84,135.42-2,190.09-41.65,27.09-19.62,49.67-45.23,64.55-75.26.85-1.72-1.73-3.25-2.59-1.51C958.9,38.61,902.2,78.56,839.92,92.89c-36.87,8.48-75.47,8.52-112.63,1.87q-13.53-2.42-26.81-6c-8.77-2.36-17.37-5.4-26.25-7.33-16.32-3.55-30.9-1-42.88,11.12-25.55,25.92-38.54,64.08-37.68,100.06,0,1.93,3,1.93,3,0Z"/><path class="cls-4" d="M1005.4,129.15c-11.27,37.26-38.31,68.86-73.06,86.31-36.61,18.39-80.29,18.64-117.82,2.68a137.38,137.38,0,0,1-49.86-35.85c-15.41-17.69-23.92-39.38-25.74-62.7-1.77-22.57,1.8-45.2,6.46-67.22,2.3-10.88,5.19-21.64,7.46-32.52,1.71-8.2,1.11-16.14-6-21.52-7.36-5.57-17.75-7-26.57-8.48a198.47,198.47,0,0,0-33.39-2.71c-22.38.05-44.66,3.65-66.27,9.37C576.25,8.24,534.79,28.59,494.13,49.44c-79.67,40.84-157.63,86.19-242,116.86-41.52,15.09-84.58,26.45-128.59,31.05-49.38,5.17-99,.91-147.78-7.22-12.37-2.06-24.7-4.35-37-6.76-1.89-.37-2.69,2.52-.8,2.89,49.56,9.7,99.9,17.47,150.55,16.32,44.66-1,88.86-9.32,131.52-22.37,86-26.3,165.07-70.33,244.3-111.91C506.06,46.4,548,23.95,592.66,8.29c44.43-15.59,94-24.88,140.47-12.7,4.95,1.3,10.28,3.1,13.92,6.88,5.14,5.34,3.82,12.71,2.31,19.25C746.77,32.89,744,44,741.73,55.25c-4.37,21.37-7.6,43.39-5.73,65.24,1.83,21.43,9,41.67,22.26,58.71a136.47,136.47,0,0,0,45.31,37.11c34.4,17.68,75.89,21.74,112.65,9.16,34.94-12,64.79-37.9,81.92-70.57a142.58,142.58,0,0,0,10.16-25c.56-1.85-2.33-2.64-2.89-.8Z"/><path d="M217.16,148.32C216.41,93,166.33,56,139.22,12.79c-7.26-11.58-13.3-24-16.56-37.34C117.9-44.06,119.8-64.36,124-83.78c8.2-37.75,21.57-74.92,35.45-110.91a1060.73,1060.73,0,0,1,55.83-121.2c.92-1.7-1.67-3.22-2.59-1.51-37,68.71-67.39,141.88-87.76,217.29-5,18.68-9,38.06-7.93,57.51A109.47,109.47,0,0,0,128.2-.8C140.2,23.95,159,44.59,176,65.91c19.12,23.95,37.71,50.58,38.14,82.41a1.5,1.5,0,0,0,3,0Z"/><path class="cls-5" d="M978.82,158.11c-66.7,22.24-146,19.95-208.31-14.55-27.06-15-56-40.08-62.1-72C705,53.71,712.62,37.63,728.6,29c16.25-8.82,35.33-7.78,53.1-5.69,44.57,5.24,89,11.37,133.56,17.06,1.91.24,1.89-2.76,0-3-43-5.5-85.91-11.08-128.89-16.49-17.9-2.25-36.88-4.11-54,3-13.84,5.77-25.12,17-27.4,32.27-2.48,16.63,5,33.25,14.28,46.6a137,137,0,0,0,33.42,33.18c28.75,20.41,63.7,31.63,98.34,36.62A280.94,280.94,0,0,0,979.62,161c1.82-.61,1-3.51-.8-2.89Z"/><path class="cls-5" d="M1141.49,52.33c-39.56,52.73-96.6,96.54-162.6,108.46-36.29,6.55-74.84,3.26-106.89-16-15.72-9.44-30-21-45.8-30.4A324.23,324.23,0,0,0,777.43,91c-38.66-15-79.32-23.82-119.74-32.55-1.88-.41-2.69,2.48-.8,2.89,37,8,74.23,16.09,110,28.9a337.84,337.84,0,0,1,53.32,24.15c16.47,9.38,31.29,21.17,47.34,31.2,60.26,37.65,137.95,21,194.8-15.07,31.77-20.13,59.23-46.62,81.77-76.65,1.16-1.54-1.44-3-2.59-1.51Z"/><path class="cls-6" d="M1034.47,107.22c-38.8-4.67-78.76-2.79-116.57-14-32.33-9.56-63.13-29.65-73.77-63.2-5.45-17.2-4.89-36.06,4.07-52a1.5,1.5,0,0,0-2.59-1.51c-15.76,28-6.72,63.88,14.38,86.52,25.42,27.27,63.54,37.12,99.34,41,25,2.73,50.17,3.1,75.14,6.11,1.91.23,1.9-2.77,0-3Z"/><path class="cls-6" d="M1133.4-33.1c-14.82-11.7-27.5,14-32.33,24a568.29,568.29,0,0,0-26.37,64.79q-5.63,16.71-10.21,33.75c-2.6,9.67-6.21,20.23-4.71,30.37,2.51,17,19.86,22.69,34.71,24.59,10.8,1.38,21.76,1.69,32.61,2.58q18.51,1.52,37,3.52,37.7,4.08,75.14,10.17,18.33,3,36.58,6.44c10.43,2,22,3.3,31.27,8.8,20.65,12.22,12.47,38.84,3.56,55.89-22.07,42.22-55.09,78.6-94.44,105.34-1.59,1.08-.09,3.68,1.51,2.59a297.49,297.49,0,0,0,82.74-84.58c9.88-15.32,20.67-32.52,22.46-51.09.74-7.7-.48-15.76-5-22.21-5-7.15-12.9-11-21.07-13.33-10.35-3-21.2-4.52-31.78-6.44q-18.27-3.31-36.63-6.14-35-5.39-70.19-9.06-18-1.87-36-3.29c-10.41-.82-21-1-31.34-2.73-8.32-1.41-17.38-4-23.16-10.53-8-9-5.1-21.47-2.45-32a562.66,562.66,0,0,1,24.25-74q7.61-18.74,16.56-36.89c3.69-7.48,14.39-26.92,25.18-18.4,1.5,1.18,3.64-.93,2.12-2.12Z"/><path class="cls-6" d="M1172.14,72.61l-100,96.12c-1.39,1.34.73,3.46,2.12,2.12l100-96.12c1.39-1.34-.73-3.46-2.12-2.12Z"/></svg>